<?xml version="1.0" encoding="utf-8"?>
<!-- Generator: Adobe Illustrator 16.0.0, SVG Export Plug-In . SVG Version: 6.00 Build 0)  -->
<!DOCTYPE svg PUBLIC "-//W3C//DTD SVG 1.1//EN" "http://www.w3.org/Graphics/SVG/1.1/DTD/svg11.dtd">
<svg version="1.1" id="Layer_1" xmlns="http://www.w3.org/2000/svg" xmlns:xlink="http://www.w3.org/1999/xlink" x="0px" y="0px"
	 width="426px" height="425.667px" viewBox="0 0 426 425.667" enable-background="new 0 0 426 425.667" xml:space="preserve">
<g>
	<path fill="#A7D5FC" d="M213.256,394.833c-100.355,0-182.001-81.647-182.001-182.005c0-100.353,81.646-181.995,182.001-181.995
		c100.354,0,181.999,81.643,181.999,181.995C395.255,313.186,313.61,394.833,213.256,394.833z"/>
	<path fill="#01457C" d="M213.256,33.833c47.812,0,92.763,18.619,126.571,52.428s52.428,78.758,52.428,126.567
		c0,47.815-18.619,92.768-52.428,126.577c-33.808,33.809-78.759,52.428-126.571,52.428c-47.814,0-92.766-18.619-126.574-52.428
		s-52.427-78.762-52.427-126.577c0-47.811,18.619-92.759,52.427-126.567C120.491,52.453,165.442,33.833,213.256,33.833
		 M213.256,27.833c-102.177,0-185.001,82.829-185.001,184.995c0,102.179,82.824,185.005,185.001,185.005
		c102.173,0,184.999-82.826,184.999-185.005C398.255,110.663,315.429,27.833,213.256,27.833L213.256,27.833z"/>
	<path fill="#006699" d="M213.256,27.833c102.173,0,184.999,82.829,184.999,184.995c0,102.179-82.826,185.005-184.999,185.005
		c-102.177,0-185.001-82.826-185.001-185.005C28.255,110.663,111.079,27.833,213.256,27.833 M213.256,0.833
		c-28.609,0-56.376,5.609-82.53,16.671c-25.248,10.679-47.917,25.961-67.378,45.422c-19.46,19.461-34.743,42.129-45.421,67.377
		C6.864,156.457,1.255,184.222,1.255,212.829c0,28.609,5.609,56.377,16.67,82.531c10.679,25.249,25.961,47.919,45.422,67.38
		s42.13,34.744,67.379,45.423c26.154,11.062,53.921,16.671,82.53,16.671c28.608,0,56.375-5.609,82.528-16.671
		c25.248-10.679,47.917-25.962,67.378-45.423s34.743-42.131,45.422-67.38c11.062-26.154,16.671-53.922,16.671-82.531
		c0-28.606-5.608-56.372-16.671-82.524c-10.679-25.248-25.961-47.917-45.422-67.377s-42.13-34.743-67.378-45.422
		C269.63,6.442,241.863,0.833,213.256,0.833L213.256,0.833z"/>
</g>
<g>
	<polygon fill="#3399FF" points="184.344,217.271 92.27,263.317 184.356,171.23 	"/>
	<polygon fill="#006699" points="184.344,309.345 92.27,263.317 184.356,171.23 	"/>
	<polyline fill="#01457C" points="92.27,263.317 184.344,284.746 184.344,355.389 	"/>
	<path fill="#29ABE2" d="M184.356,171.23"/>
</g>
<g>
	<polygon fill="#006699" points="274.179,70.283 236.506,107.958 217.662,70.283 	"/>
	<path fill="#29ABE2" d="M217.662,70.283"/>
	<polygon fill="#3399FF" points="236.506,70.278 236.506,107.958 198.817,70.278 	"/>
</g>
<g>
	<polygon fill="#3399FF" points="192.985,143.48 334.241,214.11 192.979,72.848 	"/>
	<polygon fill="#006699" points="192.985,284.731 334.241,214.11 192.985,143.48 	"/>
	<polyline fill="#01457C" points="334.241,214.11 192.985,284.731 192.985,355.348 	"/>
	<path fill="#29ABE2" d="M192.985,143.48"/>
</g>
<ellipse fill="#A8ACB2" cx="206.51" cy="212.833" rx="3.626" ry="0.001"/>
</svg>
